<?xml version="1.0" encoding="utf-8"?><svg width="auto" height="3020" style="overflow:visible " version="1.1" xmlns="http://www.w3.org/2000/svg"><rect x="20" y="20" width="200" height="40" style="fill:white;stroke:black;stroke-width:1" /><text x="30" y="30" font-size="10" style="fill:blue">xs:schema</text><text x="30" y="40" font-size="8" style="fill:black">xmlns:xs: http://www.w3.org/2001/XMLSchema</text><text x="30" y="50" font-size="8" style="fill:black">targetNamespace: http://www.uniovi.es</text><text x="30" y="60" font-size="8" style="fill:black">xmlns: http://www.uniovi.es</text><text x="30" y="70" font-size="8" style="fill:black">elementFormDefault: qualified</text><rect x="240" y="20" width="200" height="40" style="fill:white;stroke:black;stroke-width:1" /><text x="250" y="30" font-size="10" style="fill:blue">xs:element</text><path d="M220 40 C240 40 220 40 240 40" style="fill:transparent;stroke:black" /><text x="250" y="40" font-size="8" style="fill:black">name: rutas</text><rect x="460" y="20" width="200" height="40" style="fill:white;stroke:black;stroke-width:1" /><text x="470" y="30" font-size="10" style="fill:blue">xs:complexType</text><path d="M440 40 C460 40 440 40 460 40" style="fill:transparent;stroke:black" /><rect x="680" y="20" width="200" height="40" style="fill:white;stroke:black;stroke-width:1" /><text x="690" y="30" font-size="10" style="fill:blue">xs:sequence</text><path d="M660 40 C680 40 660 40 680 40" style="fill:transparent;stroke:black" /><rect x="900" y="20" width="200" height="40" style="fill:white;stroke:black;stroke-width:1" /><text x="910" y="30" font-size="10" style="fill:blue">xs:element</text><path d="M880 40 C900 40 880 40 900 40" style="fill:transparent;stroke:black" /><text x="910" y="40" font-size="8" style="fill:black">minOccurs: 1</text><text x="910" y="50" font-size="8" style="fill:black">maxOccurs: unbounded</text><text x="910" y="60" font-size="8" style="fill:black">ref: ruta</text><rect x="240" y="220" width="200" height="40" style="fill:white;stroke:black;stroke-width:1" /><text x="250" y="230" font-size="10" style="fill:blue">xs:element</text><path d="M220 40 C240 40 220 240 240 240" style="fill:transparent;stroke:black" /><text x="250" y="240" font-size="8" style="fill:black">name: ruta</text><rect x="460" y="220" width="200" height="40" style="fill:white;stroke:black;stroke-width:1" /><text x="470" y="230" font-size="10" style="fill:blue">xs:complexType</text><path d="M440 240 C460 240 440 240 460 240" style="fill:transparent;stroke:black" /><rect x="680" y="220" width="200" height="40" style="fill:white;stroke:black;stroke-width:1" /><text x="690" y="230" font-size="10" style="fill:blue">xs:sequence</text><path d="M660 240 C680 240 660 240 680 240" style="fill:transparent;stroke:black" /><rect x="900" y="220" width="200" height="40" style="fill:white;stroke:black;stroke-width:1" /><text x="910" y="230" font-size="10" style="fill:blue">xs:element</text><path d="M880 240 C900 240 880 240 900 240" style="fill:transparent;stroke:black" /><text x="910" y="240" font-size="8" style="fill:black">name: fecha</text><text x="910" y="250" font-size="8" style="fill:black">type: xs:date</text><text x="910" y="260" font-size="8" style="fill:black">minOccurs: 0</text><text x="910" y="270" font-size="8" style="fill:black">maxOccurs: 1</text><rect x="900" y="270" width="200" height="40" style="fill:white;stroke:black;stroke-width:1" /><text x="910" y="280" font-size="10" style="fill:blue">xs:element</text><path d="M880 240 C900 240 880 290 900 290" style="fill:transparent;stroke:black" /><text x="910" y="290" font-size="8" style="fill:black">name: hora</text><text x="910" y="300" font-size="8" style="fill:black">type: xs:time</text><text x="910" y="310" font-size="8" style="fill:black">minOccurs: 0</text><text x="910" y="320" font-size="8" style="fill:black">maxOccurs: 1</text><rect x="900" y="320" width="200" height="40" style="fill:white;stroke:black;stroke-width:1" /><text x="910" y="330" font-size="10" style="fill:blue">xs:element</text><path d="M880 240 C900 240 880 340 900 340" style="fill:transparent;stroke:black" /><text x="910" y="340" font-size="8" style="fill:black">name: tiempo</text><text x="910" y="350" font-size="8" style="fill:black">type: xs:duration</text><rect x="900" y="370" width="200" height="40" style="fill:white;stroke:black;stroke-width:1" /><text x="910" y="380" font-size="10" style="fill:blue">xs:element</text><path d="M880 240 C900 240 880 390 900 390" style="fill:transparent;stroke:black" /><text x="910" y="390" font-size="8" style="fill:black">name: agencia</text><text x="910" y="400" font-size="8" style="fill:black">type: xs:string</text><rect x="900" y="420" width="200" height="40" style="fill:white;stroke:black;stroke-width:1" /><text x="910" y="430" font-size="10" style="fill:blue">xs:element</text><path d="M880 240 C900 240 880 440 900 440" style="fill:transparent;stroke:black" /><text x="910" y="440" font-size="8" style="fill:black">name: descripcion</text><text x="910" y="450" font-size="8" style="fill:black">type: xs:string</text><rect x="900" y="470" width="200" height="40" style="fill:white;stroke:black;stroke-width:1" /><text x="910" y="480" font-size="10" style="fill:blue">xs:element</text><path d="M880 240 C900 240 880 490 900 490" style="fill:transparent;stroke:black" /><text x="910" y="490" font-size="8" style="fill:black">name: personas</text><text x="910" y="500" font-size="8" style="fill:black">type: xs:string</text><rect x="900" y="520" width="200" height="40" style="fill:white;stroke:black;stroke-width:1" /><text x="910" y="530" font-size="10" style="fill:blue">xs:element</text><path d="M880 240 C900 240 880 540 900 540" style="fill:transparent;stroke:black" /><text x="910" y="540" font-size="8" style="fill:black">name: lugar</text><text x="910" y="550" font-size="8" style="fill:black">type: xs:string</text><rect x="900" y="570" width="200" height="40" style="fill:white;stroke:black;stroke-width:1" /><text x="910" y="580" font-size="10" style="fill:blue">xs:element</text><path d="M880 240 C900 240 880 590 900 590" style="fill:transparent;stroke:black" /><text x="910" y="590" font-size="8" style="fill:black">name: direccion</text><text x="910" y="600" font-size="8" style="fill:black">type: xs:string</text><rect x="900" y="620" width="200" height="40" style="fill:white;stroke:black;stroke-width:1" /><text x="910" y="630" font-size="10" style="fill:blue">xs:element</text><path d="M880 240 C900 240 880 640 900 640" style="fill:transparent;stroke:black" /><text x="910" y="640" font-size="8" style="fill:black">ref: coordenadas</text><rect x="900" y="670" width="200" height="40" style="fill:white;stroke:black;stroke-width:1" /><text x="910" y="680" font-size="10" style="fill:blue">xs:element</text><path d="M880 240 C900 240 880 690 900 690" style="fill:transparent;stroke:black" /><text x="910" y="690" font-size="8" style="fill:black">ref: referencias</text><rect x="900" y="720" width="200" height="40" style="fill:white;stroke:black;stroke-width:1" /><text x="910" y="730" font-size="10" style="fill:blue">xs:element</text><path d="M880 240 C900 240 880 740 900 740" style="fill:transparent;stroke:black" /><text x="910" y="740" font-size="8" style="fill:black">ref: recomendacion</text><rect x="900" y="770" width="200" height="40" style="fill:white;stroke:black;stroke-width:1" /><text x="910" y="780" font-size="10" style="fill:blue">xs:element</text><path d="M880 240 C900 240 880 790 900 790" style="fill:transparent;stroke:black" /><text x="910" y="790" font-size="8" style="fill:black">ref: hitos</text><rect x="680" y="870" width="200" height="40" style="fill:white;stroke:black;stroke-width:1" /><text x="690" y="880" font-size="10" style="fill:blue">xs:attribute</text><path d="M660 240 C680 240 660 890 680 890" style="fill:transparent;stroke:black" /><text x="690" y="890" font-size="8" style="fill:black">name: nombre</text><text x="690" y="900" font-size="8" style="fill:black">type: xs:string</text><text x="690" y="910" font-size="8" style="fill:black">use: required</text><rect x="680" y="920" width="200" height="40" style="fill:white;stroke:black;stroke-width:1" /><text x="690" y="930" font-size="10" style="fill:blue">xs:attribute</text><path d="M660 240 C680 240 660 940 680 940" style="fill:transparent;stroke:black" /><text x="690" y="940" font-size="8" style="fill:black">name: tipo</text><text x="690" y="950" font-size="8" style="fill:black">type: xs:string</text><text x="690" y="960" font-size="8" style="fill:black">use: required</text><rect x="680" y="970" width="200" height="40" style="fill:white;stroke:black;stroke-width:1" /><text x="690" y="980" font-size="10" style="fill:blue">xs:attribute</text><path d="M660 240 C680 240 660 990 680 990" style="fill:transparent;stroke:black" /><text x="690" y="990" font-size="8" style="fill:black">name: medio</text><text x="690" y="1000" font-size="8" style="fill:black">type: xs:string</text><text x="690" y="1010" font-size="8" style="fill:black">use: required</text><rect x="240" y="1120" width="200" height="40" style="fill:white;stroke:black;stroke-width:1" /><text x="250" y="1130" font-size="10" style="fill:blue">xs:element</text><path d="M220 40 C240 40 220 1140 240 1140" style="fill:transparent;stroke:black" /><text x="250" y="1140" font-size="8" style="fill:black">name: coordenadas</text><rect x="460" y="1120" width="200" height="40" style="fill:white;stroke:black;stroke-width:1" /><text x="470" y="1130" font-size="10" style="fill:blue">xs:complexType</text><path d="M440 1140 C460 1140 440 1140 460 1140" style="fill:transparent;stroke:black" /><rect x="680" y="1120" width="200" height="40" style="fill:white;stroke:black;stroke-width:1" /><text x="690" y="1130" font-size="10" style="fill:blue">xs:attribute</text><path d="M660 1140 C680 1140 660 1140 680 1140" style="fill:transparent;stroke:black" /><text x="690" y="1140" font-size="8" style="fill:black">name: longitud</text><text x="690" y="1150" font-size="8" style="fill:black">type: xs:float</text><text x="690" y="1160" font-size="8" style="fill:black">use: required</text><rect x="680" y="1170" width="200" height="40" style="fill:white;stroke:black;stroke-width:1" /><text x="690" y="1180" font-size="10" style="fill:blue">xs:attribute</text><path d="M660 1140 C680 1140 660 1190 680 1190" style="fill:transparent;stroke:black" /><text x="690" y="1190" font-size="8" style="fill:black">name: latitud</text><text x="690" y="1200" font-size="8" style="fill:black">type: xs:float</text><text x="690" y="1210" font-size="8" style="fill:black">use: required</text><rect x="680" y="1220" width="200" height="40" style="fill:white;stroke:black;stroke-width:1" /><text x="690" y="1230" font-size="10" style="fill:blue">xs:attribute</text><path d="M660 1140 C680 1140 660 1240 680 1240" style="fill:transparent;stroke:black" /><text x="690" y="1240" font-size="8" style="fill:black">name: altitud</text><text x="690" y="1250" font-size="8" style="fill:black">type: xs:float</text><text x="690" y="1260" font-size="8" style="fill:black">use: required</text><rect x="240" y="1370" width="200" height="40" style="fill:white;stroke:black;stroke-width:1" /><text x="250" y="1380" font-size="10" style="fill:blue">xs:element</text><path d="M220 40 C240 40 220 1390 240 1390" style="fill:transparent;stroke:black" /><text x="250" y="1390" font-size="8" style="fill:black">name: referencias</text><rect x="460" y="1370" width="200" height="40" style="fill:white;stroke:black;stroke-width:1" /><text x="470" y="1380" font-size="10" style="fill:blue">xs:complexType</text><path d="M440 1390 C460 1390 440 1390 460 1390" style="fill:transparent;stroke:black" /><rect x="680" y="1370" width="200" height="40" style="fill:white;stroke:black;stroke-width:1" /><text x="690" y="1380" font-size="10" style="fill:blue">xs:sequence</text><path d="M660 1390 C680 1390 660 1390 680 1390" style="fill:transparent;stroke:black" /><rect x="900" y="1370" width="200" height="40" style="fill:white;stroke:black;stroke-width:1" /><text x="910" y="1380" font-size="10" style="fill:blue">xs:element</text><path d="M880 1390 C900 1390 880 1390 900 1390" style="fill:transparent;stroke:black" /><text x="910" y="1390" font-size="8" style="fill:black">name: referencia</text><text x="910" y="1400" font-size="8" style="fill:black">type: xs:string</text><text x="910" y="1410" font-size="8" style="fill:black">minOccurs: 3</text><text x="910" y="1420" font-size="8" style="fill:black">maxOccurs: unbounded</text><rect x="240" y="1570" width="200" height="40" style="fill:white;stroke:black;stroke-width:1" /><text x="250" y="1580" font-size="10" style="fill:blue">xs:element</text><path d="M220 40 C240 40 220 1590 240 1590" style="fill:transparent;stroke:black" /><text x="250" y="1590" font-size="8" style="fill:black">name: recomendacion</text><rect x="460" y="1570" width="200" height="40" style="fill:white;stroke:black;stroke-width:1" /><text x="470" y="1580" font-size="10" style="fill:blue">xs:simpleType</text><path d="M440 1590 C460 1590 440 1590 460 1590" style="fill:transparent;stroke:black" /><rect x="680" y="1570" width="200" height="40" style="fill:white;stroke:black;stroke-width:1" /><text x="690" y="1580" font-size="10" style="fill:blue">xs:restriction</text><path d="M660 1590 C680 1590 660 1590 680 1590" style="fill:transparent;stroke:black" /><text x="690" y="1590" font-size="8" style="fill:black">base: xs:integer</text><rect x="900" y="1570" width="200" height="40" style="fill:white;stroke:black;stroke-width:1" /><text x="910" y="1580" font-size="10" style="fill:blue">xs:minInclusive</text><path d="M880 1590 C900 1590 880 1590 900 1590" style="fill:transparent;stroke:black" /><text x="910" y="1590" font-size="8" style="fill:black">value: 0</text><rect x="900" y="1620" width="200" height="40" style="fill:white;stroke:black;stroke-width:1" /><text x="910" y="1630" font-size="10" style="fill:blue">xs:maxInclusive</text><path d="M880 1590 C900 1590 880 1640 900 1640" style="fill:transparent;stroke:black" /><text x="910" y="1640" font-size="8" style="fill:black">value: 10</text><rect x="240" y="1820" width="200" height="40" style="fill:white;stroke:black;stroke-width:1" /><text x="250" y="1830" font-size="10" style="fill:blue">xs:element</text><path d="M220 40 C240 40 220 1840 240 1840" style="fill:transparent;stroke:black" /><text x="250" y="1840" font-size="8" style="fill:black">name: hitos</text><rect x="460" y="1820" width="200" height="40" style="fill:white;stroke:black;stroke-width:1" /><text x="470" y="1830" font-size="10" style="fill:blue">xs:complexType</text><path d="M440 1840 C460 1840 440 1840 460 1840" style="fill:transparent;stroke:black" /><rect x="680" y="1820" width="200" height="40" style="fill:white;stroke:black;stroke-width:1" /><text x="690" y="1830" font-size="10" style="fill:blue">xs:sequence</text><path d="M660 1840 C680 1840 660 1840 680 1840" style="fill:transparent;stroke:black" /><rect x="900" y="1820" width="200" height="40" style="fill:white;stroke:black;stroke-width:1" /><text x="910" y="1830" font-size="10" style="fill:blue">xs:element</text><path d="M880 1840 C900 1840 880 1840 900 1840" style="fill:transparent;stroke:black" /><text x="910" y="1840" font-size="8" style="fill:black">ref: hito</text><text x="910" y="1850" font-size="8" style="fill:black">minOccurs: 3</text><text x="910" y="1860" font-size="8" style="fill:black">maxOccurs: unbounded</text><rect x="240" y="2020" width="200" height="40" style="fill:white;stroke:black;stroke-width:1" /><text x="250" y="2030" font-size="10" style="fill:blue">xs:element</text><path d="M220 40 C240 40 220 2040 240 2040" style="fill:transparent;stroke:black" /><text x="250" y="2040" font-size="8" style="fill:black">name: hito</text><rect x="460" y="2020" width="200" height="40" style="fill:white;stroke:black;stroke-width:1" /><text x="470" y="2030" font-size="10" style="fill:blue">xs:complexType</text><path d="M440 2040 C460 2040 440 2040 460 2040" style="fill:transparent;stroke:black" /><rect x="680" y="2020" width="200" height="40" style="fill:white;stroke:black;stroke-width:1" /><text x="690" y="2030" font-size="10" style="fill:blue">xs:sequence</text><path d="M660 2040 C680 2040 660 2040 680 2040" style="fill:transparent;stroke:black" /><rect x="900" y="2020" width="200" height="40" style="fill:white;stroke:black;stroke-width:1" /><text x="910" y="2030" font-size="10" style="fill:blue">xs:element</text><path d="M880 2040 C900 2040 880 2040 900 2040" style="fill:transparent;stroke:black" /><text x="910" y="2040" font-size="8" style="fill:black">name: descripcion</text><text x="910" y="2050" font-size="8" style="fill:black">type: xs:string</text><rect x="900" y="2070" width="200" height="40" style="fill:white;stroke:black;stroke-width:1" /><text x="910" y="2080" font-size="10" style="fill:blue">xs:element</text><path d="M880 2040 C900 2040 880 2090 900 2090" style="fill:transparent;stroke:black" /><text x="910" y="2090" font-size="8" style="fill:black">ref: coordenadas</text><rect x="900" y="2120" width="200" height="40" style="fill:white;stroke:black;stroke-width:1" /><text x="910" y="2130" font-size="10" style="fill:blue">xs:element</text><path d="M880 2040 C900 2040 880 2140 900 2140" style="fill:transparent;stroke:black" /><text x="910" y="2140" font-size="8" style="fill:black">name: distancia</text><rect x="1120" y="2120" width="200" height="40" style="fill:white;stroke:black;stroke-width:1" /><text x="1130" y="2130" font-size="10" style="fill:blue">xs:complexType</text><path d="M1100 2140 C1120 2140 1100 2140 1120 2140" style="fill:transparent;stroke:black" /><rect x="1340" y="2120" width="200" height="40" style="fill:white;stroke:black;stroke-width:1" /><text x="1350" y="2130" font-size="10" style="fill:blue">xs:simpleContent</text><path d="M1320 2140 C1340 2140 1320 2140 1340 2140" style="fill:transparent;stroke:black" /><rect x="1560" y="2120" width="200" height="40" style="fill:white;stroke:black;stroke-width:1" /><text x="1570" y="2130" font-size="10" style="fill:blue">xs:extension</text><path d="M1540 2140 C1560 2140 1540 2140 1560 2140" style="fill:transparent;stroke:black" /><text x="1570" y="2140" font-size="8" style="fill:black">base: xs:string</text><rect x="1780" y="2120" width="200" height="40" style="fill:white;stroke:black;stroke-width:1" /><text x="1790" y="2130" font-size="10" style="fill:blue">xs:attribute</text><path d="M1760 2140 C1780 2140 1760 2140 1780 2140" style="fill:transparent;stroke:black" /><text x="1790" y="2140" font-size="8" style="fill:black">name: unidades</text><text x="1790" y="2150" font-size="8" style="fill:black">type: xs:string</text><text x="1790" y="2160" font-size="8" style="fill:black">use: required</text><rect x="900" y="2370" width="200" height="40" style="fill:white;stroke:black;stroke-width:1" /><text x="910" y="2380" font-size="10" style="fill:blue">xs:element</text><path d="M880 2040 C900 2040 880 2390 900 2390" style="fill:transparent;stroke:black" /><text x="910" y="2390" font-size="8" style="fill:black">name: galeriaFotos</text><rect x="1120" y="2370" width="200" height="40" style="fill:white;stroke:black;stroke-width:1" /><text x="1130" y="2380" font-size="10" style="fill:blue">xs:complexType</text><path d="M1100 2390 C1120 2390 1100 2390 1120 2390" style="fill:transparent;stroke:black" /><rect x="1340" y="2370" width="200" height="40" style="fill:white;stroke:black;stroke-width:1" /><text x="1350" y="2380" font-size="10" style="fill:blue">xs:sequence</text><path d="M1320 2390 C1340 2390 1320 2390 1340 2390" style="fill:transparent;stroke:black" /><rect x="1560" y="2370" width="200" height="40" style="fill:white;stroke:black;stroke-width:1" /><text x="1570" y="2380" font-size="10" style="fill:blue">xs:element</text><path d="M1540 2390 C1560 2390 1540 2390 1560 2390" style="fill:transparent;stroke:black" /><text x="1570" y="2390" font-size="8" style="fill:black">name: foto</text><text x="1570" y="2400" font-size="8" style="fill:black">type: xs:string</text><text x="1570" y="2410" font-size="8" style="fill:black">minOccurs: 1</text><text x="1570" y="2420" font-size="8" style="fill:black">maxOccurs: 5</text><rect x="900" y="2570" width="200" height="40" style="fill:white;stroke:black;stroke-width:1" /><text x="910" y="2580" font-size="10" style="fill:blue">xs:element</text><path d="M880 2040 C900 2040 880 2590 900 2590" style="fill:transparent;stroke:black" /><text x="910" y="2590" font-size="8" style="fill:black">name: galeriaVideos</text><text x="910" y="2600" font-size="8" style="fill:black">minOccurs: 0</text><text x="910" y="2610" font-size="8" style="fill:black">maxOccurs: 1</text><rect x="1120" y="2570" width="200" height="40" style="fill:white;stroke:black;stroke-width:1" /><text x="1130" y="2580" font-size="10" style="fill:blue">xs:complexType</text><path d="M1100 2590 C1120 2590 1100 2590 1120 2590" style="fill:transparent;stroke:black" /><rect x="1340" y="2570" width="200" height="40" style="fill:white;stroke:black;stroke-width:1" /><text x="1350" y="2580" font-size="10" style="fill:blue">xs:sequence</text><path d="M1320 2590 C1340 2590 1320 2590 1340 2590" style="fill:transparent;stroke:black" /><rect x="1560" y="2570" width="200" height="40" style="fill:white;stroke:black;stroke-width:1" /><text x="1570" y="2580" font-size="10" style="fill:blue">xs:element</text><path d="M1540 2590 C1560 2590 1540 2590 1560 2590" style="fill:transparent;stroke:black" /><text x="1570" y="2590" font-size="8" style="fill:black">name: video</text><text x="1570" y="2600" font-size="8" style="fill:black">type: xs:string</text><text x="1570" y="2610" font-size="8" style="fill:black">minOccurs: 1</text><text x="1570" y="2620" font-size="8" style="fill:black">maxOccurs: 3</text><rect x="680" y="2820" width="200" height="40" style="fill:white;stroke:black;stroke-width:1" /><text x="690" y="2830" font-size="10" style="fill:blue">xs:attribute</text><path d="M660 2040 C680 2040 660 2840 680 2840" style="fill:transparent;stroke:black" /><text x="690" y="2840" font-size="8" style="fill:black">name: nombre</text><text x="690" y="2850" font-size="8" style="fill:black">type: xs:string</text><text x="690" y="2860" font-size="8" style="fill:black">use: required</text></svg>